<?xml version="1.0" encoding="utf-8"?>
<!-- Generator: Adobe Illustrator 27.2.0, SVG Export Plug-In . SVG Version: 6.00 Build 0)  -->
<svg version="1.1" id="Layer_1"   xmlns:xlink="http://www.w3.org/1999/xlink" x="0px" y="0px"
	 viewBox="0 0 100 100" style="enable-background:new 0 0 100 100;" xml:space="preserve">
<style type="text/css">
	.st0{fill:#6D6E71;}
</style>
<g>
	<path class="st0" d="M86.8,24.9h-9.4v63.4h9.4c3.5,0,6.3-2.8,6.3-6.3V31.2C93.1,27.7,90.3,24.9,86.8,24.9L86.8,24.9z"/>
	<path class="st0" d="M22.6,24.9h-9.4c-3.5,0-6.3,2.8-6.3,6.3v50.9c0,3.5,2.8,6.3,6.3,6.3h9.4L22.6,24.9L22.6,24.9z"/>
	<path class="st0" d="M70.6,24.9v-7c0-3.5-2.8-6.3-6.3-6.3H35.7c-3.5,0-6.3,2.8-6.3,6.3v7h-2.7v63.4h46.6l0-63.4L70.6,24.9z
		 M66.5,24.9H33.5v-7c0-1.2,1-2.1,2.1-2.1h28.7c1.2,0,2.1,1,2.1,2.1V24.9z"/>
</g>
</svg>
