<?xml version="1.0" encoding="utf-8"?>
<!-- Generator: Adobe Illustrator 27.2.0, SVG Export Plug-In . SVG Version: 6.00 Build 0)  -->
<svg version="1.1" id="Layer_1"   xmlns:xlink="http://www.w3.org/1999/xlink" x="0px" y="0px"
	 viewBox="0 0 100 100" style="enable-background:new 0 0 100 100;" xml:space="preserve">
<style type="text/css">
	.st0{fill:#6D6E71;}
</style>
<g>
	<path class="st0" d="M35.3,12.2L50,33.3l14.8-21.4c2.4-3.5-4.1-5.5-7,0C54.6,18,46,18.2,42.4,12.4C38.5,6.1,33,9,35.3,12.2
		L35.3,12.2z"/>
	<path class="st0" d="M84.7,84.6c2.6-2.6,2.6-6.7,0-9.2c-2.6-2.6-6.7-2.6-9.2,0c-2.6,2.6-2.6,6.7,0,9.2C77.9,87,82.1,87,84.7,84.6z"
		/>
	<path class="st0" d="M66.3,13l-4.6,25.4l25.7-4.6c4.3-0.8,1.2-6.9-4.9-5c-6.6,2-12.8-4-11.1-10.7C72.9,11.1,67.1,9,66.3,13L66.3,13
		z"/>
	<path class="st0" d="M88.2,57.9c-6.1-3.2-6.3-11.9-0.5-15.4c6.1-3.7,3.2-9.3,0-7L66.6,50.1L88,64.9C91.7,67.3,93.7,60.8,88.2,57.9
		L88.2,57.9z"/>
	<path class="st0" d="M50.2,66.7L35.3,88.1c-2.4,3.7,4,5.7,7,0.2c3.2-6.1,11.9-6.3,15.4-0.5c3.7,6.1,9.3,3.2,7,0L50.2,66.7z"/>
	<path class="st0" d="M87.1,66.4l-25.4-4.6l4.6,25.7c0.8,4.3,6.9,1.2,5-4.9c-2-6.6,4-12.8,10.7-11.1C89.1,73.1,90.9,67,87.1,66.4
		L87.1,66.4z"/>
	<path class="st0" d="M56.6,92.4c0-3.7-2.9-6.6-6.6-6.6s-6.6,2.9-6.6,6.6c0,3.7,2.9,6.6,6.6,6.6S56.6,96,56.6,92.4z"/>
	<path class="st0" d="M98.9,49.9c0,3.6-2.9,6.6-6.6,6.6c-3.6,0-6.6-2.9-6.6-6.6c0-3.6,2.9-6.6,6.6-6.6
		C95.9,43.4,98.9,46.3,98.9,49.9"/>
	<path class="st0" d="M24.6,84.7c2.6-2.6,2.6-6.7,0-9.2c-2.6-2.6-6.7-2.6-9.2,0c-2.6,2.6-2.6,6.7,0,9.2
		C18.1,87.2,22.2,87.2,24.6,84.7z"/>
	<path class="st0" d="M24.6,24.7c2.6-2.6,2.6-6.7,0-9.2c-2.6-2.6-6.7-2.6-9.2,0c-2.6,2.6-2.6,6.7,0,9.2
		C17.9,27.3,22.1,27.3,24.6,24.7z"/>
	<path class="st0" d="M7.7,56.6c3.7,0,6.6-2.9,6.6-6.6s-2.9-6.6-6.6-6.6c-3.5,0-6.6,2.9-6.6,6.6S4,56.6,7.7,56.6z"/>
	<path class="st0" d="M12.3,57.7c-6.1,3.7-3.2,9.3,0,7l21.1-14.7L12,35.3c-3.7-2.4-5.7,4.1-0.2,7C17.9,45.6,18.1,54.2,12.3,57.7
		L12.3,57.7z"/>
	<path class="st0" d="M17.5,71.6c6.6-2,12.8,4,11.1,10.7c-1.7,7,4.3,8.9,4.9,5L38.1,62l-25.7,4.6C8.3,67.3,11.5,73.4,17.5,71.6
		L17.5,71.6z"/>
	<path class="st0" d="M12.9,33.7l25.4,4.6l-4.6-25.7c-0.8-4.3-6.9-1.2-5,4.9c2,6.6-4,12.8-10.7,11.1C10.9,27,9.1,33.1,12.9,33.7
		L12.9,33.7z"/>
	<path class="st0" d="M84.5,24.7c2.6-2.6,2.6-6.7,0-9.2c-2.6-2.6-6.7-2.6-9.2,0c-2.6,2.6-2.6,6.7,0,9.2
		C77.8,27.2,81.9,27.2,84.5,24.7z"/>
	<path class="st0" d="M49.8,14.2c3.7,0,6.6-2.9,6.6-6.6s-2.9-6.6-6.6-6.6S43.3,4,43.3,7.6C43.4,11.3,46.3,14.2,49.8,14.2z"/>
</g>
</svg>
