<?xml version="1.0" encoding="utf-8"?>
<!-- Generator: Adobe Illustrator 27.2.0, SVG Export Plug-In . SVG Version: 6.00 Build 0)  -->
<svg version="1.1" id="Layer_1"   xmlns:xlink="http://www.w3.org/1999/xlink" x="0px" y="0px"
	 viewBox="0 0 100 100" style="enable-background:new 0 0 100 100;" xml:space="preserve">
<style type="text/css">
	.st0{fill:#6D6E71;}
</style>
<g>
	<path class="st0" d="M34.1,66.8c-0.4-0.4-0.8-0.8-1.1-1.2l-7.8,8c0.4,0.3,0.8,0.7,1.2,1.1L34.1,66.8z"/>
	<path class="st0" d="M75,70.4c0.3-0.5,0.6-0.9,1-1.4l-7.2-5.5c-0.3,0.4-0.7,0.9-1,1.3L75,70.4z"/>
	<path class="st0" d="M64.2,31.7c0.4,0.3,0.9,0.7,1.3,1.1l5.6-6.4l0,0c-0.5-0.3-0.9-0.7-1.3-1.1L64.2,31.7z"/>
	<path class="st0" d="M27.1,19.9c-0.4,0.4-0.8,0.7-1.3,1l9.1,11.5c0.4-0.4,0.8-0.7,1.3-1.1L27.1,19.9z"/>
	<path class="st0" d="M50,28.5c-5.8,0-11.4,2.4-15.5,6.6c-4.1,4.2-6.2,9.9-6,15.7c0.2,5.8,2.8,11.3,7.2,15.2
		c1.9-5.1,5.9-10.6,14.3-10.6S62.4,60.9,64.3,66c4.4-3.9,6.9-9.4,7.2-15.2c0.2-5.8-2-11.5-6-15.7C61.4,30.8,55.8,28.5,50,28.5
		L50,28.5z M50,52.4L50,52.4c-2.3,0-4.4-0.9-6-2.5c-1.6-1.6-2.5-3.8-2.5-6c0-2.3,0.9-4.4,2.5-6c1.6-1.6,3.8-2.5,6-2.5s4.4,0.9,6,2.5
		c1.6,1.6,2.5,3.8,2.5,6c0,2.3-0.9,4.4-2.5,6C54.4,51.5,52.3,52.4,50,52.4L50,52.4z"/>
	<path class="st0" d="M50,37.1c-1.8,0-3.5,0.7-4.8,2c-1.3,1.3-2,3-2,4.8c0,1.8,0.7,3.5,2,4.8c1.3,1.3,3,2,4.8,2c1.8,0,3.5-0.7,4.8-2
		c1.3-1.3,2-3,2-4.8c0-1.8-0.7-3.5-2-4.8C53.5,37.8,51.8,37.1,50,37.1L50,37.1z"/>
	<path class="st0" d="M50,57.1c-7.9,0-11.5,5.6-13.1,10.4h0.5v0c3.6,2.6,8,4.1,12.5,4.1s8.9-1.4,12.5-4.1h0.5
		C61.5,62.7,57.9,57.1,50,57.1L50,57.1z"/>
	<path class="st0" d="M28.4,13.1c0,4.3-3.5,7.8-7.8,7.8c-4.3,0-7.8-3.5-7.8-7.8c0-4.3,3.5-7.8,7.8-7.8C24.9,5.3,28.4,8.8,28.4,13.1"
		/>
	<path class="st0" d="M91.8,69.7c3.9,3.9,3.9,10.2,0,14.1c-3.9,3.9-10.2,3.9-14.1,0c-3.9-3.9-3.9-10.2,0-14.1
		C81.6,65.8,87.9,65.8,91.8,69.7"/>
	<path class="st0" d="M84.6,18.8c0,4.4-3.5,7.9-7.9,7.9c-4.4,0-7.9-3.5-7.9-7.9c0-4.4,3.5-7.9,7.9-7.9
		C81.1,10.9,84.6,14.4,84.6,18.8"/>
	<path class="st0" d="M27.9,83.4c0,6.2-5.1,11.3-11.3,11.3S5.3,89.6,5.3,83.4c0-6.2,5.1-11.3,11.3-11.3S27.9,77.1,27.9,83.4"/>
</g>
</svg>
