<?xml version="1.0" encoding="utf-8"?>
<!-- Generator: Adobe Illustrator 27.2.0, SVG Export Plug-In . SVG Version: 6.00 Build 0)  -->
<svg version="1.1" id="Layer_1"   xmlns:xlink="http://www.w3.org/1999/xlink" x="0px" y="0px"
	 viewBox="0 0 100 100" style="enable-background:new 0 0 100 100;" xml:space="preserve">
<style type="text/css">
	.st0{fill:#6D6E71;}
</style>
<g>
	<path class="st0" d="M6.2,34.4c-0.4-0.1-0.8-0.1-1.2,0.1c-0.4,0.2-0.7,0.5-0.8,0.9c-3.2,9.7-3.2,20.2,0,30c0.3,0.8,1.2,1.3,2,1
		c0.8-0.3,1.3-1.2,1-2c-3-9.1-3-18.9,0-28c0.1-0.4,0.1-0.8-0.1-1.2C6.9,34.9,6.6,34.6,6.2,34.4L6.2,34.4z"/>
	<path class="st0" d="M92.5,69.9c-0.8-0.4-1.8-0.1-2.2,0.7c-4.1,8.1-10.5,14.9-18.5,19.3c-0.8,0.4-1,1.4-0.6,2.2
		c0.4,0.8,1.4,1.1,2.2,0.6c8.5-4.7,15.5-11.9,19.8-20.6C93.6,71.3,93.2,70.3,92.5,69.9L92.5,69.9z"/>
	<path class="st0" d="M64,7.6c9,3,16.9,8.7,22.5,16.4c0.5,0.7,1.5,0.8,2.2,0.3c0.7-0.5,0.9-1.5,0.4-2.2C83.1,13.9,74.7,7.8,65,4.6
		c-0.8-0.3-1.7,0.2-2,1C62.7,6.4,63.2,7.3,64,7.6L64,7.6z"/>
	<path class="st0" d="M90.1,38.5c-7.1-24.9-36.7-37.4-59.5-25C28.3,9.5,24.1,7,19.5,7C6.3,7.1,1.8,24.5,13,31
		c-3.3,6.3-5,13.4-4.8,20.5c0.2,7.1,2.2,14.1,5.9,20.3c-3.4,2.2-5.5,5.8-5.9,9.8c-0.3,4,1.2,7.9,4.2,10.6c3,2.7,7,3.8,11,3.1
		c3.9-0.7,7.3-3.3,9.1-6.8c22.6,10.8,50.7-2,57.5-26v0c3.2-1.3,5.8-3.8,7.1-7c1.3-3.2,1.3-6.8,0-10C95.9,42.3,93.3,39.8,90.1,38.5
		L90.1,38.5z M72.7,48.9h-3.3c-0.1-4.6-0.5-9.2-1.3-13.7c4.5-2.2,8.7-5.1,12.1-8.8c2.7,3.4,4.8,7.2,6.3,11.3
		c-3.3-0.3-6.6,0.8-9.1,2.9C74.7,42.6,73.1,45.6,72.7,48.9L72.7,48.9z M64.4,33.2c-4.1,1.6-8.4,2.5-12.7,2.7V12
		C57.1,13.4,61.9,21.8,64.4,33.2L64.4,33.2z M48.4,12v23.9c-4.4-0.2-8.7-1.1-12.7-2.7C38.2,21.8,42.9,13.4,48.4,12L48.4,12z
		 M48.4,39.1v9.7H34c0.1-4.2,0.4-8.3,1.1-12.4C39.4,38.1,43.9,39,48.4,39.1L48.4,39.1z M48.4,52.1v9.7c-4.6,0.2-9.1,1.1-13.3,2.7
		c-0.7-4.1-1.1-8.3-1.1-12.4L48.4,52.1z M48.4,65v23.9c-5.5-1.4-10.3-9.7-12.7-21.2v0C39.8,66.1,44.1,65.2,48.4,65L48.4,65z
		 M51.6,88.9V65c4.4,0.2,8.7,1.1,12.7,2.7C61.9,79.1,57.1,87.5,51.6,88.9L51.6,88.9z M51.6,61.8v-9.7h14.5
		c-0.1,4.2-0.4,8.3-1.1,12.4C60.7,62.9,56.2,61.9,51.6,61.8L51.6,61.8z M51.6,48.9v-9.7c4.6-0.2,9.1-1.1,13.3-2.7
		c0.7,4.1,1.1,8.3,1.1,12.4L51.6,48.9z M78.1,23.9c-3.1,3.2-6.7,5.9-10.7,7.9c-1.9-8.3-5-15-8.8-19C66,14.5,72.8,18.4,78.1,23.9
		L78.1,23.9z M41.5,12.8c-3.8,4-6.9,10.7-8.8,19c-1.5-0.8-3-1.6-4.4-2.6c1.7-1.6,2.9-3.7,3.6-5.9c0.6-2.3,0.6-4.6,0-6.9
		C34.9,14.8,38.1,13.6,41.5,12.8L41.5,12.8z M9.8,19.9c0-3.4,1.8-6.5,4.7-8.3c2.9-1.7,6.5-1.8,9.5-0.2c3,1.6,4.9,4.7,5.1,8.1
		c0.2,3.4-1.5,6.6-4.3,8.5c-1.9,1.3-4.3,1.8-6.6,1.5c-2.3-0.3-4.4-1.5-6-3.2C10.7,24.5,9.8,22.2,9.8,19.9L9.8,19.9z M19.5,32.8
		c2.1,0,4.2-0.5,6.1-1.5c2,1.5,4.2,2.8,6.5,3.9c-0.8,4.5-1.2,9.1-1.3,13.7H11.5c0.2-5.8,1.8-11.5,4.5-16.6
		C17.1,32.6,18.3,32.8,19.5,32.8L19.5,32.8z M11.5,52.1h19.3c0.1,4.6,0.5,9.2,1.3,13.7c-2.6,1.2-5,2.7-7.3,4.5
		c-2.5-0.7-5.2-0.7-7.7,0.1C13.6,64.9,11.7,58.6,11.5,52.1L11.5,52.1z M21.1,92.3c-2.6,0-5-1-6.8-2.8c-1.8-1.8-2.8-4.3-2.8-6.8
		c0.5-12.8,18.9-12.8,19.3,0c0,2.6-1,5-2.8,6.8C26.1,91.3,23.6,92.3,21.1,92.3z M28.1,71.8c1.5-1,3-1.9,4.6-2.8c1.9,8.3,5,15,8.8,19
		c-2.7-0.6-5.4-1.5-7.9-2.7c0.6-2.6,0.3-5.2-0.7-7.7C32,75.3,30.3,73.3,28.1,71.8L28.1,71.8z M58.6,88.1c3.8-4,6.9-10.7,8.8-19h0
		c4,2,7.6,4.7,10.7,7.9C72.8,82.5,66,86.4,58.6,88.1L58.6,88.1z M80.2,74.6c-3.5-3.6-7.6-6.6-12.1-8.7c0.8-4.5,1.2-9.1,1.3-13.7h3.3
		h0c0.4,3.3,2.1,6.3,4.6,8.4c2.6,2.1,5.8,3.1,9.1,2.8C85,67.4,82.9,71.2,80.2,74.6L80.2,74.6z M85.4,60.1c-2.6,0-5-1-6.8-2.8
		c-1.8-1.8-2.8-4.3-2.8-6.8c0.5-12.8,18.9-12.8,19.3,0c0,2.6-1,5-2.8,6.8C90.4,59.1,88,60.1,85.4,60.1z"/>
</g>
</svg>
