<?xml version="1.0" encoding="utf-8"?>
<!-- Generator: Adobe Illustrator 27.2.0, SVG Export Plug-In . SVG Version: 6.00 Build 0)  -->
<svg version="1.1" id="Layer_1"   xmlns:xlink="http://www.w3.org/1999/xlink" x="0px" y="0px"
	 viewBox="0 0 100 100" style="enable-background:new 0 0 100 100;" xml:space="preserve">
<style type="text/css">
	.st0{fill:#6D6E71;}
</style>
<g>
	<path class="st0" d="M89.4,11.8H34.9c-4.7,0-8.4,3.7-8.4,8.4v16H10.1c-4.4,0-7.9,3.6-7.9,7.9v36.1c0,4.4,3.6,7.9,7.9,7.9h55.4
		c4.4,0,7.9-3.6,7.9-7.9V63.9h16c4.7,0,8.4-3.7,8.4-8.4l0-35.2C97.8,15.6,94.1,11.8,89.4,11.8L89.4,11.8z M10.1,40.9h55.4
		c1.4,0,2.7,0.9,3.2,2.2L37.9,65.1L7.1,43.1C7.4,41.8,8.7,40.9,10.1,40.9L10.1,40.9z M43.5,64.2l25.3-18v34.1c0,0.6-0.1,1.2-0.5,1.6
		L43.5,64.2z M7.3,82c-0.2-0.5-0.5-1.1-0.5-1.6l0-34.1l25.3,18L7.3,82z M10.1,83.6H9.5L34.4,66l2.7,1.9c0.1,0.1,0.2,0.1,0.4,0.1
		c0.1,0,0.2,0.1,0.5,0.1c0.2,0,0.4,0,0.5-0.1c0.1,0,0.2-0.1,0.4-0.1l2.7-1.9l24.7,17.5h-0.6H10.1L10.1,83.6z M93.2,55.5
		c0,2.1-1.6,3.7-3.7,3.7H73.6V44.2c0-4.4-3.6-7.9-7.9-7.9H31.2v-16c0-2.1,1.6-3.7,3.7-3.7h54.5c2.1,0,3.7,1.6,3.7,3.7L93.2,55.5z"/>
	<path class="st0" d="M89.1,19.3h-8.2c-0.7,0-1.3,0.6-1.3,1.3v8.2c0,0.7,0.6,1.3,1.3,1.3h8.2c0.7,0,1.3-0.6,1.3-1.3v-8.2
		C90.5,19.9,89.9,19.3,89.1,19.3z M87.8,27.4h-5.5v-5.5h5.5V27.4z"/>
	<path class="st0" d="M68.3,31.1H43.2c-0.7,0-1.3,0.6-1.3,1.3c0,0.7,0.6,1.3,1.3,1.3h25.1c0.7,0,1.3-0.6,1.3-1.3
		C69.6,31.7,69,31.1,68.3,31.1z"/>
	<path class="st0" d="M68.3,25.8H43.2c-0.7,0-1.3,0.6-1.3,1.3c0,0.7,0.6,1.3,1.3,1.3h25.1c0.7,0,1.3-0.6,1.3-1.3
		C69.6,26.4,69,25.8,68.3,25.8z"/>
</g>
</svg>
