<?xml version="1.0" encoding="utf-8"?>
<!-- Generator: Adobe Illustrator 27.2.0, SVG Export Plug-In . SVG Version: 6.00 Build 0)  -->
<svg version="1.1" id="Layer_1"   xmlns:xlink="http://www.w3.org/1999/xlink" x="0px" y="0px"
	 viewBox="0 0 100 100" style="enable-background:new 0 0 100 100;" xml:space="preserve">
<style type="text/css">
	.st0{fill-rule:evenodd;clip-rule:evenodd;fill:#6D6E71;}
</style>
<path class="st0" d="M48.6,0c-0.9,0.1-1.5,0.4-1.8,0.8c-0.3,0.4-0.4,1.1-0.3,2.1l5.6,4C52.8,7.4,52,8.6,51.2,8l-5.8-4.2l0,0l0,0
	l-2.9-2.1c-0.9,0.4-1.7,0.9-2.2,1.5c-0.5,0.6-0.8,1.5-0.9,2.7l8,5.7c0.7,0.6-0.1,1.7-0.8,1.2l-8.3-6l0,0l-0.8-0.6
	c-1.5,0.5-3,2.2-3.5,5l8,5.7c0.8,0.5-0.1,1.7-0.8,1.2l-8.4-6l0,0l-1.1-0.8c-1.4,0.5-2.4,1.2-3,2.1c-0.6,0.9-0.9,2.1-0.9,3.4L42,27
	l4.9,3.5c0,0,0,0,0.1,0.1c0,0,0,0,0.1,0.1c0,0,0.1,0.1,0.1,0.1c0,0,0.1,0.1,0.1,0.1l0,0.2l0,0.3L47,31.5c0,0-0.2,0.1-0.2,0.1
	c0,0-0.1,0-0.1,0.1c0,0-0.1,0-0.1,0c-0.1,0-0.1,0-0.1,0c-0.2,0-0.3,0-0.4-0.1c-0.3-0.1-1-0.3-2.4-0.8c-0.1,0-0.1-0.2-0.2-0.2
	c0,0,0,0,0,0c-0.2,0.6-0.4,1.2-0.5,1.9c-0.3,1.3-0.4,2.5-0.4,2.5l5,1.4c5.9,1.6,21.2,6.8,22.2,7.1l7.9-13.7l-2-7.4
	c-0.6-2.2-2.6-4.8-5.2-7.4c-2.7-2.6-6-5.1-9.3-7.4C54.8,3.3,48.9,0.2,48.6,0L48.6,0z M27.9,18.4L22,20.3c-2.1,0.8-4.6,2.9-7,5.7
	c-2.4,2.8-4.7,6.4-6.7,9.8c-3.9,6.6-6.6,12.7-6.8,13c0.2,0.9,0.5,1.5,1,1.8c0.5,0.3,1.1,0.4,2.1,0.1l3.6-5.8
	c0.5-0.8,1.7-0.1,1.2,0.7l-3.7,6.1l0,0l0,0l-1.9,3.1c0.5,0.9,1,1.6,1.6,2c0.7,0.4,1.5,0.7,2.7,0.7l5.1-8.4c0.5-0.8,1.7-0.1,1.2,0.7
	l-5.9,9.6c0.6,1.5,2.4,2.9,5.2,3.1l5.1-8.4c0.5-0.8,1.7-0.1,1.2,0.7l-6.1,10c0.6,1.4,1.3,2.3,2.3,2.9c1,0.5,2.1,0.7,3.4,0.6
	l9.6-15.9c0.9-1,1.8-2.8,2.6-4.1c0,0,0,0,0.1-0.1c0,0,0,0,0.1-0.1c0,0,0.1-0.1,0.1-0.1l0.1-0.1l0.2,0l0.3,0c0,0,0.2,0.1,0.2,0.1
	c0,0,0.1,0.2,0.1,0.2c0,0,0.1,0.1,0.1,0.1c0,0,0,0.1,0,0.1c0,0.1,0,0.1,0,0.1c0,0.2,0,0.3,0,0.4c-0.1,0.3-0.2,1-0.6,2.4
	c-0.1,0.5,0,0.8,0.3,1.2c0.3,0.4,0.8,0.7,1.4,1c0.9,0.4,1.5,0.5,1.9,0.6l0.7-1.5l1.1-5.5c1.2-6,4.3-17.6,4.6-18.4L27.9,18.4
	L27.9,18.4z M80.7,29c-0.3,0-0.6,0-1,0L67.9,49.3l0,0c0,0,0,0.1,0,0.1c-0.5,0.7-1.6,0-1.2-0.8l0.1-0.1c0.5-1.2,1.3-3.3,0.8-4.4
	l-4-1.2L63,44.9l-1,5.6c-1.1,6.1-3,18.1-3,18.1c0,0.2-0.1,0.3-0.2,0.4c-0.7,0.7-1.8,1.2-2.5,1.7c-0.3,0.2-0.5,0.4-0.6,0.5l12.9,11.8
	c0.1-0.1,0.3-0.3,0.6-0.6c0.5-0.6,1-1.6,1.6-2.3c0.1-0.1,0.2-0.1,0.3-0.2l7.5-2.8c2.1-0.8,4.5-3,6.8-5.9c2.3-2.9,4.5-6.5,6.5-9.9
	c3.8-6.7,6.4-12.8,6.5-13.2c-0.2-0.9-0.5-1.4-1-1.7c-0.5-0.3-1.2-0.3-2.1-0.1l-3.4,5.9c-0.5,0.8-1.7,0.1-1.2-0.7l3.6-6.2l0,0
	l1.8-3.1c-0.5-0.9-1-1.6-1.7-2c-0.7-0.4-1.5-0.6-2.7-0.6l-4.9,8.5c-0.5,0.8-1.7,0.1-1.2-0.7l5.2-8.8l0,0l0.5-0.9
	c-0.6-1.5-2.5-2.8-5.3-3l-5,8.5c-0.5,0.8-1.7,0.1-1.2-0.7l5.2-8.9l0.7-1.2c-0.6-1.4-1.4-2.3-2.4-2.8C82.5,29.2,81.7,29,80.7,29
	L80.7,29z M31.9,51.9c-0.8,1.5-0.8,1.4-0.8,1.5l-9,15l0.8,6c0.3,2.2,1.9,5.1,4.3,8c2.3,2.9,5.3,5.8,8.3,8.5c5.7,5.1,11.1,9,11.4,9.2
	c0.9,0,1.5-0.2,1.9-0.6c0.4-0.4,0.6-1.1,0.5-2v0l-5-4.6c-0.7-0.6,0.3-1.6,1-1l5.3,4.9l0,0l2.6,2.4c1-0.3,1.8-0.7,2.3-1.2
	c0.6-0.6,1-1.4,1.2-2.5l-7.2-6.7c-0.7-0.6,0.3-1.6,1-1l7.5,7l0.7,0.7c1.6-0.3,3.3-1.8,4.1-4.5L55.5,84c-0.7-0.6,0.3-1.6,1-1l7.6,7
	l0,0l1,0.9c1.5-0.3,2.5-0.9,3.3-1.7c0.7-0.8,1.1-1.9,1.3-3.3L52.3,70c0,0,0,0-0.1-0.1c0,0,0-0.1-0.1-0.1c0,0,0-0.1,0-0.1l0-0.1
	l0-0.2l0.1-0.3c0,0,0.2-0.2,0.2-0.2c0,0,0.2-0.1,0.2-0.1c0,0,0.1,0,0.1,0c0,0,0.1,0,0.1,0c0.1,0,0.1,0,0.1,0c0.2,0,0.3,0.1,0.4,0.1
	c0.3,0.1,0.5,0,1.8,0.7c0.5,0.2,1.1-0.1,1.1-0.1c0.5-0.1,1.3-0.6,1.6-1.1c0.6-0.8,0.3-1.2,0.4-1.5l-0.6-0.7l-5.2-2.1
	c-5.7-2.4-16.9-6.9-17-6.9l0,0c-0.1-0.1-0.2-0.1-0.3-0.3L31.9,51.9z"/>
</svg>
